<?xml version="1.0" encoding="UTF-8" standalone="no"?><!DOCTYPE svg PUBLIC "-//W3C//DTD SVG 1.1//EN" "http://www.w3.org/Graphics/SVG/1.1/DTD/svg11.dtd"><svg width="100%" height="100%" viewBox="0 0 3200 3200" version="1.1" xmlns="http://www.w3.org/2000/svg" xmlns:xlink="http://www.w3.org/1999/xlink" xml:space="preserve" xmlns:serif="http://www.serif.com/" style="fill-rule:evenodd;clip-rule:evenodd;stroke-linecap:round;stroke-linejoin:round;stroke-miterlimit:1.5;"><clipPath id="_clip1"><polygon points="84.269,467.854 2184.54,93.722 2558.67,2193.99 458.401,2568.12 84.269,467.854 "/></clipPath><g clip-path="url(#_clip1)"><g><path d="M1041.74,295.179c60.166,-10.718 120.327,-21.435 180.492,-32.152c41.702,-2.013 83.941,-2.483 126.717,-1.412c-198.375,86.1 -359.035,217.703 -481.98,394.813c-19.716,34.034 -38.285,68.379 -55.711,103.033c-2.98,-0.879 -5.955,-1.76 -8.935,-2.64c-23.3,-5.689 -45.299,-2.476 -65.999,9.64c-33.322,29.853 -63.44,62.727 -90.354,98.625c-6.527,19.759 -5.854,39.387 2.026,58.89c20.079,41.061 41.988,80.895 65.725,119.493c-3.69,0.102 -6.182,1.956 -7.474,5.563c-24.377,128.326 -25.454,256.895 -3.239,385.713c-25.721,-7.129 -48.844,-2.303 -69.371,14.473c-22.016,19.488 -42.216,40.722 -60.601,63.699c-5.658,12.54 -7.567,25.577 -5.73,39.111c15.678,39.11 34.364,76.691 56.059,112.749c9.299,7.693 19.526,13.629 30.683,17.812c23.648,-2.228 46.772,-7.054 69.37,-14.474c13.945,-6.39 28.744,-10.436 44.392,-12.14c56.368,138.194 137.861,259.11 244.489,362.745c4.314,4.831 9.588,6.71 15.818,5.647c6.394,45.632 23.078,87.805 50.047,126.517c8.648,7.419 18.633,11.989 29.952,13.71c27.677,-2.814 55.147,-7.005 82.407,-12.564c2.736,-0.487 5.468,-0.974 8.204,-1.461c-1.187,3.267 -3.553,5.805 -7.108,7.614c160.701,98.206 335.419,152.435 524.154,162.682c-39.513,16.201 -79.316,30.347 -119.409,42.432c-60.166,10.718 -120.327,21.435 -180.492,32.152c-420.581,22.093 -751.88,-138.968 -993.892,-483.185c-60.643,-95.796 -106.305,-197.7 -136.987,-305.714c-10.718,-60.166 -21.435,-120.327 -32.152,-180.492c-22.093,-420.582 138.969,-751.88 483.185,-993.892c95.796,-60.643 197.7,-106.305 305.714,-136.987Z" style="fill:#a5694b;"/></g><g><path d="M1348.95,261.615c34.628,0.357 69.028,3.399 103.2,9.126c10.189,7.926 17.61,17.891 22.254,29.894c-24.945,63.605 -42.135,129.446 -51.576,197.523c-6.067,54.991 -4.09,109.658 5.937,164.001c-11.757,7.317 -22.968,15.662 -33.631,25.036c-22.252,26.754 -45.943,52.136 -71.081,76.146c-23.097,26.786 -26.989,56.403 -11.683,88.842c31.725,41.581 64.376,82.319 97.951,122.216c11.818,8.344 24.778,13.793 38.887,16.35c21.147,-0.961 41.535,-5.299 61.166,-13.011c16.408,-8.01 33.699,-13.914 51.866,-17.704c65.996,82.576 148.204,144.113 246.615,184.611c3.427,4.083 6.33,8.501 8.71,13.261c-6.013,19.986 -3.41,38.567 7.814,55.744c40.641,23.559 82.994,43.524 127.057,59.896c18.27,0.829 34.191,-4.83 47.763,-16.973c20.081,-21.915 40.156,-43.834 60.236,-65.75c54.986,-7.577 109.679,-17.32 164.084,-29.229c39.665,-12.186 77.732,-28.139 114.211,-47.854c11.573,-0.513 20.752,3.498 27.535,12.024c6.334,35.553 12.666,71.101 18.999,106.654c22.425,363.734 -101.27,667.213 -371.083,910.439c-89.765,75.559 -189.235,134.894 -298.407,178.008c-188.735,-10.247 -363.453,-64.476 -524.154,-162.682c3.555,-1.809 5.921,-4.347 7.108,-7.614c34.549,-1.33 57.654,-18.142 69.313,-50.437c8.483,-22.135 15.769,-44.595 21.855,-67.378c0.057,-15.529 -2.622,-30.568 -8.038,-45.123c-28.691,-26.588 -59.103,-50.797 -91.233,-72.625c-25.02,-14.555 -48.628,-12.465 -70.832,6.269c-22.787,24.065 -46.969,46.711 -72.542,67.942c-9.117,10.452 -15.494,22.169 -19.133,35.15c-6.23,1.063 -11.504,-0.816 -15.818,-5.647c-106.628,-103.635 -188.121,-224.551 -244.489,-362.745c20.996,-6.728 37.75,-19.586 50.263,-38.579c7.227,-45.269 6.272,-90.24 -2.873,-134.921c-9.833,-11.652 -21.915,-20.08 -36.246,-25.285c-24.117,-5.188 -47.82,-11.547 -71.114,-19.074c-2.736,0.487 -4.345,-0.635 -4.832,-3.371c-22.215,-128.818 -21.138,-257.387 3.239,-385.713c1.292,-3.607 3.784,-5.461 7.474,-5.563c34.242,32.473 71.5,35.71 111.769,9.715c36.942,-13.86 73.891,-28.2 110.84,-43.022c15.018,-14.576 23.838,-32.369 26.464,-53.385c-0.477,-32.397 -0.607,-64.823 -0.398,-97.271c1.083,-32.028 -12.313,-55.742 -40.182,-71.139c-37.393,-9.768 -74.377,-19.407 -110.956,-28.906c17.426,-34.654 35.995,-68.999 55.711,-103.033c122.945,-177.11 283.605,-308.713 481.98,-394.813Z" style="fill:#b8774f;"/></g><g><path d="M1832.96,602.854c-17.139,-4.125 -29.586,-14.604 -37.342,-31.438c-26.764,-40.028 -50.404,-81.667 -70.923,-124.915c7.063,-57.929 17.267,-115.472 30.617,-172.628c4.084,-10.049 8.776,-19.349 14.075,-27.901c31.515,-14.885 62.505,-30.986 92.97,-48.303c13.613,-5.881 27.532,-6.95 41.751,-3.205c12.49,11.052 22.567,24.07 30.234,39.053c39.889,65.547 77.852,132.143 113.887,199.79c1.68,12.946 -1.966,24.176 -10.928,33.689c-67.533,46.454 -135.647,91.74 -204.341,135.858Z" style="fill:#b8774f;fill-opacity:0.98;"/></g><g><path d="M1769.39,245.972c-5.299,8.552 -9.991,17.852 -14.075,27.901c-13.35,57.156 -23.554,114.699 -30.617,172.628c20.519,43.248 44.159,84.887 70.923,124.915c7.756,16.834 20.203,27.313 37.342,31.438c-20.094,21.173 -44.737,33.32 -73.921,36.445c-8.372,-3.447 -15.621,-8.505 -21.747,-15.171c-29.041,-45.751 -56.391,-92.371 -82.05,-139.861c9.608,-62.529 21.817,-124.661 36.629,-186.396c24.064,-19.841 49.901,-37.14 77.516,-51.899Z" style="fill:#a5694b;"/></g><g><path d="M1137.73,548.944c37.416,-1.478 74.553,1.077 111.404,7.664c26.862,28.584 22.434,51.239 -13.286,67.967c-33.527,1.291 -66.561,-1.994 -99.098,-9.857c-23.363,-22.525 -23.036,-44.45 0.98,-65.774Z" style="fill:#935f4a;"/></g><g><path d="M802.325,756.821c-23.991,30.018 -49.006,59.868 -75.042,89.548c-5.707,14.717 -7.937,29.927 -6.684,45.629c20.407,45.802 43.167,90.419 68.282,133.85c10.651,11.612 22.855,20.725 36.611,27.336c-40.269,25.995 -77.527,22.758 -111.769,-9.715c-23.737,-38.598 -45.646,-78.432 -65.725,-119.493c-7.88,-19.503 -8.553,-39.131 -2.026,-58.89c26.914,-35.898 57.032,-68.772 90.354,-98.625c20.7,-12.116 42.699,-15.329 65.999,-9.64Z" style="fill:#644141;"/></g><g><path d="M802.325,756.821c2.98,0.88 5.955,1.761 8.935,2.64c36.579,9.499 73.563,19.138 110.956,28.906c27.869,15.397 41.265,39.111 40.182,71.139c-0.209,32.448 -0.079,64.874 0.398,97.271c-2.626,21.016 -11.446,38.809 -26.464,53.385c-36.949,14.822 -73.898,29.162 -110.84,43.022c-13.756,-6.611 -25.96,-15.724 -36.611,-27.336c-25.115,-43.431 -47.875,-88.048 -68.282,-133.85c-1.253,-15.702 0.977,-30.912 6.684,-45.629c26.036,-29.68 51.051,-59.53 75.042,-89.548Z" style="fill:#734b46;"/></g><g><path d="M1479.45,661.594c1.064,6.231 -0.815,11.505 -5.646,15.819c-27.201,27.607 -53.948,55.648 -80.24,84.126c-13.328,23.425 -14.656,47.642 -3.986,72.658c36.821,51.609 77.086,99.456 120.795,143.541c-19.631,7.712 -40.019,12.05 -61.166,13.011c-14.109,-2.557 -27.069,-8.006 -38.887,-16.35c-33.575,-39.897 -66.226,-80.635 -97.951,-122.216c-15.306,-32.439 -11.414,-62.056 11.683,-88.842c25.138,-24.01 48.829,-49.392 71.081,-76.146c10.663,-9.374 21.874,-17.719 33.631,-25.036c5.547,-0.269 10.091,-2.488 13.626,-6.66c13.058,-0.091 25.414,1.94 37.06,6.095Z" style="fill:#644141;"/></g><g><path d="M1479.45,661.594c39.873,13.995 77.759,32.64 113.655,55.935c4.695,5.88 8.65,12.231 11.858,19.049c12.779,56.133 18.664,112.927 17.653,170.378c-11.417,27.495 -31.543,45.191 -60.377,53.078c-18.167,3.79 -35.458,9.694 -51.866,17.704c-43.709,-44.085 -83.974,-91.932 -120.795,-143.541c-10.67,-25.016 -9.342,-49.233 3.986,-72.658c26.292,-28.478 53.039,-56.519 80.24,-84.126c4.831,-4.314 6.71,-9.588 5.646,-15.819Z" style="fill:#724a45;fill-opacity:0.98;"/></g><g><path d="M2062.25,892.127c-10.01,-6.398 -17.869,-14.876 -23.574,-25.427c-25.533,-59.418 -46.749,-119.122 -63.648,-179.113c32.646,-32.864 66.425,-64.982 101.34,-96.349c20.73,-8.074 37.793,-3.355 51.193,14.158c25.281,72.807 46.882,146.553 64.802,221.23c-3.029,12.932 -10.579,22.035 -22.644,27.312c-35.557,13.604 -71.38,26.334 -107.469,38.189Z" style="fill:#b8774f;fill-opacity:0.97;"/></g><g><path d="M1975.03,687.587c16.899,59.991 38.115,119.695 63.648,179.113c5.705,10.551 13.564,19.029 23.574,25.427c-23.442,14.447 -48.176,18.146 -74.203,11.102c-4.974,-5.12 -9.488,-10.664 -13.543,-16.633c-16.431,-42.274 -33.111,-84.448 -50.047,-126.517c0.414,-10.409 2.127,-20.588 5.14,-30.542c14.502,-14.814 29.647,-28.799 45.431,-41.95Z" style="fill:#a5694b;"/></g><g><path d="M1758.46,802.345c24.528,-5.072 49.262,-8.771 74.203,-11.102c7.241,3.848 13.12,9.149 17.645,15.902c9.438,43.409 10.152,87.018 2.142,130.818c-13.571,15.855 -30.299,20.951 -50.18,15.287c-23.668,-8.582 -44.928,-21.017 -63.781,-37.309c-3.905,-26.839 -3.061,-53.793 2.524,-80.863c1.686,-13.509 7.501,-24.418 17.447,-32.733Z" style="fill:#a5684a;fill-opacity:0.97;"/></g><g><path d="M1162.03,946.68c20.092,-8.116 37.033,-4.078 50.827,12.107c8.826,33.696 14.915,67.883 18.269,102.553c-7.275,20.628 -21.906,29.583 -43.886,26.862c-9.498,-1.833 -16.747,-6.89 -21.748,-15.171c-8.825,-33.695 -14.915,-67.882 -18.268,-102.552c2.606,-9.72 7.541,-17.655 14.806,-23.799Z" style="fill:#c88750;"/></g><g><path d="M483.391,1152.21c21.095,-6.048 38.281,-0.645 51.558,16.209c9.356,26.232 20.259,51.8 32.709,76.702c2.309,23.294 -7.683,38.478 -29.977,45.547c-10.54,0.468 -20.158,-2.051 -28.856,-7.557c-22.034,-31.046 -36.571,-65.133 -43.611,-102.27c3.734,-11.343 9.793,-20.887 18.177,-28.631Z" style="fill:#c8874f;"/></g><g><path d="M806.675,1208.9c12.706,-3.487 25.378,-3.628 38.015,-0.424c24.971,17.42 49.938,34.836 74.909,52.256c12.077,35.893 -0.602,55.783 -38.04,59.68c-30.439,-16.446 -58.629,-36.111 -84.575,-58.999c-4.44,-9.083 -6.146,-18.657 -5.115,-28.715c4.243,-8.636 9.179,-16.566 14.806,-23.798Z" style="fill:#925f4a;"/></g><g><path d="M1971.22,1022.61c43.725,-9.495 87.847,-15.239 132.363,-17.23c25.1,19.5 34.633,45.311 28.606,77.433c-5.868,14.055 -16.275,22.964 -31.214,26.721c-44.037,0.024 -88.011,-1.314 -131.915,-4.011c-21.577,-13.144 -29.896,-32.117 -24.952,-56.922c5.815,-12.802 14.853,-21.467 27.112,-25.991Z" style="fill:#a4684a;fill-opacity:0.98;"/></g><g><path d="M1605.07,1176.71c42.583,-5.19 59.224,13.007 49.931,54.589c-16.157,24.886 -33.821,48.487 -52.987,70.807c-36.508,12.852 -55.032,-0.071 -55.577,-38.771c17.235,-30.711 36.778,-59.586 58.633,-86.625Z" style="fill:#925f4a;"/></g><g><path d="M1181.38,1269.12c32.611,-10.706 66.677,-17.477 102.187,-20.319c22.574,-2.925 42.617,2.676 60.128,16.798c31.223,34.653 61.534,70.167 90.926,106.539c7.795,22.066 8.956,44.43 3.488,67.095c-24.584,37.835 -51.361,73.64 -80.324,107.418c-0.102,-3.689 -1.956,-6.182 -5.563,-7.474c-39.299,-10.965 -78.136,-23.092 -116.519,-36.379c-28.979,-16.516 -42.614,-41.596 -40.913,-75.241c5.18,-47.52 13.794,-94.2 25.842,-140.036c6.045,-12.106 14.961,-21.452 26.747,-28.042c-22.2,1.843 -44.199,5.055 -65.999,9.641Z" style="fill:#734b45;"/></g><g><path d="M1181.38,1269.12c21.8,-4.586 43.799,-7.798 65.999,-9.641c-11.786,6.59 -20.702,15.936 -26.747,28.042c-12.048,45.836 -20.662,92.516 -25.842,140.036c-1.701,33.645 11.934,58.725 40.913,75.241c38.383,13.287 77.22,25.414 116.519,36.379c3.607,1.292 5.461,3.785 5.563,7.474c-18.325,13.426 -38.713,17.764 -61.166,13.012c-50.759,-14.028 -100.829,-29.796 -150.207,-47.308c-21.483,-20.123 -31.58,-45.132 -30.292,-75.016c5.142,-44.213 12.877,-87.913 23.201,-131.101c8.768,-18.516 22.789,-30.892 42.059,-37.118Z" style="fill:#644141;"/></g><g><path d="M703.01,1434.75c0.487,2.736 2.096,3.858 4.832,3.371c-20.506,20.379 -39.902,42.172 -58.185,65.384c-3.329,10.607 -4.92,21.471 -4.774,32.593c14.621,33.568 29.72,66.853 45.297,99.853c9.119,12.926 20.199,23.649 33.24,32.169c-22.598,7.42 -45.722,12.246 -69.37,14.474c-11.157,-4.183 -21.384,-10.119 -30.683,-17.812c-21.695,-36.058 -40.381,-73.639 -56.059,-112.749c-1.837,-13.534 0.072,-26.571 5.73,-39.111c18.385,-22.977 38.585,-44.211 60.601,-63.699c20.527,-16.776 43.65,-21.602 69.371,-14.473Z" style="fill:#644141;"/></g><g><path d="M707.842,1438.12c23.294,7.527 46.997,13.886 71.114,19.074c14.331,5.205 26.413,13.633 36.246,25.285c9.145,44.681 10.1,89.652 2.873,134.921c-12.513,18.993 -29.267,31.851 -50.263,38.579c-15.648,1.704 -30.447,5.75 -44.392,12.14c-13.041,-8.52 -24.121,-19.243 -33.24,-32.169c-15.577,-33 -30.676,-66.285 -45.297,-99.853c-0.146,-11.122 1.445,-21.986 4.774,-32.593c18.283,-23.212 37.679,-45.005 58.185,-65.384Z" style="fill:#734b46;"/></g><g><path d="M2078.9,1342.01c15.352,-2.413 29.877,-0.061 43.578,7.05c23.277,15.034 45.268,31.576 65.974,49.616c10.924,37.541 -3.369,56.309 -42.873,56.308c-24.971,-17.42 -49.937,-34.836 -74.909,-52.256c-15.836,-23.017 -13.093,-43.258 8.23,-60.718Z" style="fill:#925f4a;"/></g><g><path d="M1000,1652.7c28.291,-11.769 48.018,-3.995 59.173,23.318c-4.097,32.501 -10.364,64.652 -18.792,96.457c-16.222,19.818 -35.362,23.228 -57.429,10.23c-5.405,-6.935 -8.917,-14.774 -10.538,-23.517c2.939,-27.622 7.196,-55.184 12.78,-82.689c2.766,-9.63 7.701,-17.565 14.806,-23.799Z" style="fill:#c88750;"/></g><g><path d="M1790.08,1550.05c-7.169,14.664 -13.622,29.924 -19.357,45.771c-11.925,51.113 -20.372,102.698 -25.335,154.758c6.207,18.786 16.771,34.54 31.695,47.258c32.851,17.556 65.026,35.809 96.516,54.755c-24.526,21.311 -51.996,25.502 -82.408,12.564c-34.791,-18.401 -68.696,-38.457 -101.713,-60.178c-11.26,-11.466 -18.601,-24.971 -22.03,-40.515c0.805,-38.839 5.976,-77.148 15.504,-114.916c1.421,-32.271 12.638,-60.369 33.655,-84.292c10.63,-6.283 21.647,-11.771 33.041,-16.467c13.523,0.765 27.001,1.183 40.432,1.262Z" style="fill:#644141;"/></g><g><path d="M1790.08,1550.05c42.265,-0.131 83.99,4.427 125.171,13.677c16.401,10.245 28.091,24.385 35.067,42.424c11.95,38.692 20.38,78.104 25.293,118.23c-0.656,7.507 -2.174,14.832 -4.55,21.972c-30.317,37.629 -62.801,73.042 -97.462,106.239c-31.49,-18.946 -63.665,-37.199 -96.516,-54.755c-14.924,-12.718 -25.488,-28.472 -31.695,-47.258c4.963,-52.06 13.41,-103.645 25.335,-154.758c5.735,-15.847 12.188,-31.107 19.357,-45.771Z" style="fill:#734b46;"/></g><g><path d="M1382.63,1686.12c21.243,-7.001 38.428,-1.598 51.559,16.209c11.479,23.865 22.139,48.066 31.977,72.6c3.454,33.882 -12.128,49.355 -46.75,46.419c-20.597,-19.448 -35.358,-42.919 -44.284,-70.409c-5.416,-14.555 -8.095,-29.593 -8.038,-45.123c4.583,-7.461 9.761,-14.029 15.536,-19.696Z" style="fill:#925f4a;"/></g><g><path d="M688.477,1852.1c29.657,-8.043 48.501,2.707 56.532,32.252c-4.474,30.605 -9.614,61.146 -15.42,91.624c-18.597,21.084 -39.35,23.372 -62.262,6.859c-6.263,-29.479 -5.909,-59.168 1.063,-89.067c4.21,-15.397 10.905,-29.287 20.087,-41.668Z" style="fill:#925f4a;"/></g><g><path d="M2098.7,1643.21c36.938,-7.181 55.829,7.796 56.674,44.923c-4.838,26.963 -11.394,53.524 -19.664,79.684c-20.174,22.507 -41.171,23.429 -62.993,2.757c-4.441,-9.083 -6.146,-18.658 -5.115,-28.715c4.558,-35.165 14.922,-68.051 31.098,-98.649Z" style="fill:#c88750;"/></g><g><path d="M1190.63,1915.01c-22.685,21.575 -45.619,43.296 -68.806,65.16c-16.743,20.339 -20.486,42.874 -11.235,67.601c13.739,29.015 28.667,57.391 44.79,85.131c10.587,9.207 22.304,15.584 35.15,19.132c-27.26,5.559 -54.73,9.75 -82.407,12.564c-11.319,-1.721 -21.304,-6.291 -29.952,-13.71c-26.969,-38.712 -43.653,-80.885 -50.047,-126.517c3.639,-12.981 10.016,-24.698 19.133,-35.15c25.573,-21.231 49.755,-43.877 72.542,-67.942c22.204,-18.734 45.812,-20.824 70.832,-6.269Z" style="fill:#644141;"/></g><g><path d="M1190.63,1915.01c32.13,21.828 62.542,46.037 91.233,72.625c5.416,14.555 8.095,29.594 8.038,45.123c-6.086,22.783 -13.372,45.243 -21.855,67.378c-11.659,32.295 -34.764,49.107 -69.313,50.437c-2.736,0.487 -5.468,0.974 -8.204,1.461c-12.846,-3.548 -24.563,-9.925 -35.15,-19.132c-16.123,-27.74 -31.051,-56.116 -44.79,-85.131c-9.251,-24.727 -5.508,-47.262 11.235,-67.601c23.187,-21.864 46.121,-43.585 68.806,-65.16Z" style="fill:#734b46;"/></g><g><path d="M1679.57,2022.59c44.579,-12.639 63.712,3.704 57.404,49.025c-23.241,19.237 -47.59,36.978 -73.049,53.22c-39.503,11.976 -58.272,-2.317 -56.308,-42.873c3.935,-5.64 7.866,-11.275 11.8,-16.915c21.084,-13.384 41.133,-27.536 60.153,-42.457Z" style="fill:#925f4a;"/></g></g><path d="M2309.17,1313.61c-680.755,136.228 -1353.67,134.513 -2019.05,0c-61.968,-257.826 24.673,-566.614 354.665,-958.854c437.483,-232.749 874.073,-236.826 1309.72,0c340.763,301.643 474.736,619.989 354.665,958.854Z" style="fill:#fff;fill-opacity:0.18;"/><g transform="matrix(1.13102,0,0,1.13102,-360.469,167.862)"><text x="318.711px" y="2327.1px" style="font-family:'FontAwesome5Pro-Regular', 'Font Awesome 5 Pro';font-size:2829.17px;fill:#12203f;"></text><path d="M3128.53,2442.59l-670.823,-670.822c-12.708,-12.708 -29.285,-19.34 -46.968,-19.34l-72.935,-0c174.059,-201.689 279.598,-464.159 279.598,-751.496c0,-634.905 -514.441,-1149.35 -1149.35,-1149.35c-634.906,-0 -1149.35,514.441 -1149.35,1149.35c-0,634.905 514.44,1149.35 1149.35,1149.35c287.336,0 549.807,-105.539 751.495,-279.598l0,72.935c0,17.683 7.183,34.26 19.34,46.968l670.823,670.823c25.966,25.972 67.965,25.972 93.937,-0l124.879,-124.879c25.972,-25.972 25.972,-67.97 -0,-93.937Zm-22.143,22.142c0.001,0.001 0.002,0.002 0.003,0.003c13.727,13.724 13.725,35.922 -0.003,49.65c0,-0 -124.878,124.879 -124.878,124.879c-13.728,13.727 -35.926,13.729 -49.651,0.002c-0.002,-0.002 -670.824,-670.825 -670.824,-670.825c-6.091,-6.377 -10.169,-15.262 -10.169,-24.826c0,-0 0,-72.935 0,-72.935c0,-12.248 -7.141,-23.372 -18.277,-28.471c-11.136,-5.099 -24.223,-3.238 -33.495,4.764c-196.198,169.322 -451.523,271.991 -731.037,271.991c-617.608,0 -1118.03,-500.425 -1118.03,-1118.03c-0,-617.607 500.424,-1118.03 1118.03,-1118.03c617.607,-0 1118.03,500.425 1118.03,1118.03c0,279.515 -102.669,534.839 -271.991,731.037c-8.002,9.272 -9.864,22.359 -4.764,33.495c5.099,11.136 16.223,18.277 28.471,18.277l72.935,0c9.339,0 18.114,3.457 24.826,10.169c-0,-0 670.822,670.822 670.822,670.822Zm-1638.33,-548.374c505.775,0 915.426,-409.651 915.426,-915.426c0,-505.775 -409.651,-915.426 -915.426,-915.426c-505.775,-0 -915.426,409.651 -915.426,915.426c-0,505.775 409.651,915.426 915.426,915.426Zm-0,-31.314c-488.474,0 -884.113,-395.638 -884.113,-884.112c0,-488.474 395.639,-884.112 884.113,-884.112c488.474,-0 884.112,395.638 884.112,884.112c0,488.474 -395.638,884.112 -884.112,884.112Z" style="fill:#eae9ed;"/></g><path d="M2802.67,3016.53c113.908,-42.682 186.381,-110.336 208.398,-208.399" style="fill:#12203f;stroke:#eae9ed;stroke-width:35.42px;"/><path d="M2730.87,2936.67c113.908,-42.681 186.381,-110.336 208.398,-208.398" style="fill:#12203f;stroke:#eae9ed;stroke-width:35.42px;"/></svg>