<?xml version="1.0" encoding="UTF-8" standalone="no"?><!DOCTYPE svg PUBLIC "-//W3C//DTD SVG 1.1//EN" "http://www.w3.org/Graphics/SVG/1.1/DTD/svg11.dtd"><svg width="100%" height="100%" viewBox="0 0 3200 3200" version="1.1" xmlns="http://www.w3.org/2000/svg" xmlns:xlink="http://www.w3.org/1999/xlink" xml:space="preserve" xmlns:serif="http://www.serif.com/" style="fill-rule:evenodd;clip-rule:evenodd;stroke-linejoin:round;stroke-miterlimit:2;"><clipPath id="_clip1"><polygon points="285.142,607.982 2035.16,296.243 2346.9,2046.26 596.881,2358 285.142,607.982 "/></clipPath><g clip-path="url(#_clip1)"><g><path d="M1082.94,464.103c50.132,-8.93 100.26,-17.86 150.392,-26.79c34.747,-1.677 69.942,-2.069 105.584,-1.176c-165.293,71.741 -299.16,181.398 -401.602,328.971c-16.428,28.359 -31.9,56.976 -46.42,85.851c-2.483,-0.733 -4.962,-1.467 -7.445,-2.2c-19.415,-4.74 -37.744,-2.062 -54.992,8.033c-27.766,24.874 -52.861,52.266 -75.286,82.177c-5.439,16.464 -4.878,32.819 1.688,49.07c16.73,34.213 34.985,67.404 54.764,99.565c-3.074,0.085 -5.151,1.63 -6.228,4.636c-20.311,106.925 -21.209,214.054 -2.699,321.388c-21.431,-5.94 -40.698,-1.919 -57.801,12.06c-18.345,16.238 -35.177,33.931 -50.496,53.076c-4.714,10.449 -6.305,21.312 -4.774,32.589c13.063,32.588 28.633,63.901 46.71,93.946c7.748,6.41 16.27,11.356 25.566,14.842c19.705,-1.857 38.972,-5.878 57.802,-12.06c11.619,-5.325 23.95,-8.696 36.989,-10.116c46.967,115.148 114.87,215.899 203.716,302.252c3.595,4.025 7.989,5.591 13.181,4.705c5.327,38.022 19.228,73.162 41.7,105.418c7.206,6.182 15.526,9.99 24.957,11.424c23.062,-2.345 45.951,-5.837 68.665,-10.469c2.28,-0.406 4.556,-0.811 6.836,-1.217c-0.989,2.722 -2.961,4.836 -5.923,6.344c133.902,81.829 279.483,127.014 436.743,135.552c-32.924,13.5 -66.089,25.286 -99.496,35.356c-50.132,8.93 -100.26,17.86 -150.392,26.79c-350.443,18.409 -626.492,-115.793 -828.145,-402.606c-50.529,-79.82 -88.577,-164.731 -114.142,-254.732c-8.93,-50.132 -17.86,-100.26 -26.79,-150.392c-18.409,-350.442 115.793,-626.492 402.606,-828.144c79.82,-50.53 164.731,-88.577 254.732,-114.143Z" style="fill:#a5694b;"/></g><g><path d="M1338.92,436.137c28.854,0.297 57.517,2.832 85.99,7.604c8.49,6.604 14.673,14.907 18.543,24.909c-20.785,52.998 -35.108,107.858 -42.975,164.583c-5.055,45.82 -3.408,91.37 4.947,136.651c-9.797,6.096 -19.137,13.05 -28.022,20.86c-18.542,22.293 -38.282,43.442 -59.227,63.448c-19.246,22.319 -22.488,46.997 -9.735,74.026c26.434,34.647 53.64,68.592 81.616,101.835c9.847,6.953 20.646,11.493 32.402,13.624c17.62,-0.801 34.608,-4.416 50.966,-10.842c13.671,-6.675 28.079,-11.593 43.216,-14.752c54.99,68.806 123.488,120.08 205.488,153.825c2.856,3.402 5.275,7.083 7.258,11.049c-5.011,16.653 -2.842,32.135 6.51,46.448c33.864,19.63 69.154,36.265 105.868,49.907c15.224,0.691 28.49,-4.024 39.799,-14.142c16.731,-18.261 33.459,-36.524 50.19,-54.785c45.817,-6.314 91.389,-14.432 136.721,-24.355c33.05,-10.154 64.769,-23.446 95.164,-39.874c9.643,-0.427 17.291,2.915 22.944,10.019c5.277,29.624 10.553,59.244 15.83,88.868c18.685,303.075 -84.382,555.945 -309.2,758.609c-74.795,62.958 -157.676,112.398 -248.642,148.322c-157.26,-8.538 -302.841,-53.723 -436.743,-135.552c2.962,-1.508 4.934,-3.622 5.923,-6.344c28.786,-1.108 48.039,-15.117 57.753,-42.026c7.068,-18.444 13.14,-37.158 18.211,-56.141c0.047,-12.94 -2.185,-25.471 -6.697,-37.598c-23.907,-22.155 -49.248,-42.326 -76.02,-60.514c-20.847,-12.128 -40.518,-10.387 -59.019,5.223c-18.987,20.052 -39.136,38.922 -60.445,56.612c-7.596,8.709 -12.91,18.472 -15.941,29.288c-5.192,0.886 -9.586,-0.68 -13.181,-4.705c-88.846,-86.353 -156.749,-187.104 -203.716,-302.252c17.494,-5.606 31.454,-16.32 41.881,-32.145c6.022,-37.72 5.225,-75.191 -2.394,-112.421c-8.193,-9.708 -18.261,-16.731 -30.201,-21.068c-20.096,-4.323 -39.846,-9.621 -59.255,-15.893c-2.28,0.406 -3.621,-0.53 -4.027,-2.81c-18.51,-107.334 -17.612,-214.463 2.699,-321.388c1.077,-3.006 3.154,-4.551 6.228,-4.636c28.531,27.057 59.576,29.755 93.13,8.095c30.781,-11.548 61.568,-23.497 92.355,-35.847c12.514,-12.145 19.863,-26.972 22.051,-44.482c-0.397,-26.995 -0.506,-54.013 -0.332,-81.05c0.903,-26.687 -10.259,-46.446 -33.481,-59.275c-31.157,-8.14 -61.973,-16.171 -92.452,-24.086c14.52,-28.875 29.992,-57.492 46.42,-85.851c102.442,-147.573 236.309,-257.23 401.602,-328.971Z" style="fill:#b8774f;"/></g><g><path d="M1742.21,720.469c-14.281,-3.437 -24.653,-12.169 -31.115,-26.196c-22.3,-33.352 -41.998,-68.047 -59.095,-104.083c5.885,-48.269 14.387,-96.215 25.511,-143.84c3.403,-8.373 7.312,-16.122 11.728,-23.248c26.259,-12.402 52.081,-25.818 77.465,-40.247c11.343,-4.901 22.941,-5.791 34.789,-2.671c10.407,9.209 18.803,20.056 25.192,32.54c33.237,54.616 64.869,110.107 94.894,166.472c1.4,10.788 -1.638,20.145 -9.105,28.071c-56.271,38.707 -113.026,76.441 -170.264,113.202Z" style="fill:#b8774f;fill-opacity:0.98;"/></g><g><path d="M1689.24,423.102c-4.416,7.126 -8.325,14.875 -11.728,23.248c-11.124,47.625 -19.626,95.571 -25.511,143.84c17.097,36.036 36.795,70.731 59.095,104.083c6.462,14.027 16.834,22.759 31.115,26.196c-16.743,17.642 -37.277,27.763 -61.593,30.367c-6.976,-2.873 -13.016,-7.086 -18.121,-12.641c-24.198,-38.121 -46.987,-76.967 -68.367,-116.537c8.006,-52.101 18.179,-103.872 30.52,-155.312c20.051,-16.532 41.58,-30.946 64.59,-43.244Z" style="fill:#a5694b;"/></g><g><path d="M1162.92,675.549c31.177,-1.231 62.12,0.898 92.826,6.386c22.382,23.817 18.692,42.694 -11.071,56.633c-27.935,1.075 -55.46,-1.662 -82.571,-8.214c-19.467,-18.769 -19.195,-37.037 0.816,-54.805Z" style="fill:#935f4a;"/></g><g><path d="M883.45,848.759c-19.99,25.012 -40.833,49.884 -62.527,74.615c-4.756,12.262 -6.614,24.936 -5.57,38.02c17.004,38.163 35.969,75.339 56.895,111.528c8.875,9.675 19.044,17.269 30.506,22.777c-33.554,21.66 -64.599,18.962 -93.13,-8.095c-19.779,-32.161 -38.034,-65.352 -54.764,-99.565c-6.566,-16.251 -7.127,-32.606 -1.688,-49.07c22.425,-29.911 47.52,-57.303 75.286,-82.177c17.248,-10.095 35.577,-12.773 54.992,-8.033Z" style="fill:#644141;"/></g><g><path d="M883.45,848.759c2.483,0.733 4.962,1.467 7.445,2.2c30.479,7.915 61.295,15.946 92.452,24.086c23.222,12.829 34.384,32.588 33.481,59.275c-0.174,27.037 -0.065,54.055 0.332,81.05c-2.188,17.51 -9.537,32.337 -22.051,44.482c-30.787,12.35 -61.574,24.299 -92.355,35.847c-11.462,-5.508 -21.631,-13.102 -30.506,-22.777c-20.926,-36.189 -39.891,-73.365 -56.895,-111.528c-1.044,-13.084 0.814,-25.758 5.57,-38.02c21.694,-24.731 42.537,-49.603 62.527,-74.615Z" style="fill:#734b46;"/></g><g><path d="M1447.66,769.413c0.886,5.192 -0.68,9.586 -4.705,13.181c-22.665,23.003 -44.951,46.368 -66.859,70.096c-11.105,19.519 -12.211,39.697 -3.321,60.542c30.681,43.002 64.231,82.87 100.651,119.603c-16.358,6.426 -33.346,10.041 -50.966,10.842c-11.756,-2.131 -22.555,-6.671 -32.402,-13.624c-27.976,-33.243 -55.182,-67.188 -81.616,-101.835c-12.753,-27.029 -9.511,-51.707 9.735,-74.026c20.945,-20.006 40.685,-41.155 59.227,-63.448c8.885,-7.81 18.225,-14.764 28.022,-20.86c4.622,-0.224 8.408,-2.073 11.354,-5.55c10.88,-0.076 21.175,1.617 30.88,5.079Z" style="fill:#644141;"/></g><g><path d="M1447.66,769.413c33.223,11.661 64.791,27.197 94.7,46.607c3.913,4.9 7.208,10.191 9.881,15.872c10.648,46.772 15.552,94.095 14.709,141.965c-9.513,22.91 -26.282,37.654 -50.308,44.226c-15.137,3.159 -29.545,8.077 -43.216,14.752c-36.42,-36.733 -69.97,-76.601 -100.651,-119.603c-8.89,-20.845 -7.784,-41.023 3.321,-60.542c21.908,-23.728 44.194,-47.093 66.859,-70.096c4.025,-3.595 5.591,-7.989 4.705,-13.181Z" style="fill:#724a45;fill-opacity:0.98;"/></g><g><path d="M1933.26,961.501c-8.342,-5.331 -14.89,-12.396 -19.644,-21.187c-21.274,-49.509 -38.952,-99.257 -53.034,-149.243c27.203,-27.384 55.348,-54.145 84.441,-80.281c17.273,-6.727 31.49,-2.796 42.655,11.797c21.065,60.665 39.064,122.113 53.996,184.337c-2.524,10.775 -8.815,18.359 -18.868,22.756c-29.627,11.336 -59.476,21.943 -89.546,31.821Z" style="fill:#b8774f;fill-opacity:0.97;"/></g><g><path d="M1860.58,791.071c14.082,49.986 31.76,99.734 53.034,149.243c4.754,8.791 11.302,15.856 19.644,21.187c-19.533,12.038 -40.143,15.12 -61.829,9.25c-4.145,-4.266 -7.906,-8.885 -11.285,-13.859c-13.691,-35.224 -27.589,-70.365 -41.701,-105.418c0.346,-8.673 1.772,-17.155 4.283,-25.448c12.084,-12.344 24.703,-23.997 37.854,-34.955Z" style="fill:#a5694b;"/></g><g><path d="M1680.13,886.691c20.438,-4.226 41.047,-7.308 61.828,-9.25c6.034,3.206 10.933,7.623 14.703,13.25c7.865,36.17 8.459,72.506 1.785,109.002c-11.308,13.211 -25.246,17.457 -41.812,12.738c-19.72,-7.151 -37.435,-17.512 -53.145,-31.087c-3.253,-22.364 -2.55,-44.822 2.104,-67.378c1.405,-11.256 6.25,-20.347 14.537,-27.275Z" style="fill:#a5684a;fill-opacity:0.97;"/></g><g><path d="M1183.17,1006.96c16.742,-6.763 30.858,-3.399 42.352,10.088c7.353,28.076 12.427,56.561 15.221,85.45c-6.061,17.188 -18.252,24.65 -36.567,22.383c-7.914,-1.528 -13.954,-5.742 -18.121,-12.641c-7.353,-28.077 -12.427,-56.562 -15.221,-85.451c2.172,-8.099 6.284,-14.71 12.336,-19.829Z" style="fill:#c88750;"/></g><g><path d="M617.703,1178.21c17.577,-5.039 31.898,-0.537 42.96,13.506c7.796,21.858 16.88,43.162 27.254,63.911c1.924,19.409 -6.402,32.061 -24.977,37.951c-8.782,0.39 -16.797,-1.709 -24.044,-6.296c-18.36,-25.869 -30.472,-54.272 -36.339,-85.215c3.112,-9.452 8.16,-17.404 15.146,-23.857Z" style="fill:#c8874f;"/></g><g><path d="M887.075,1225.44c10.587,-2.905 21.146,-3.023 31.675,-0.353c20.807,14.515 41.61,29.027 62.417,43.542c10.063,29.906 -0.502,46.48 -31.697,49.727c-25.363,-13.703 -48.851,-30.089 -70.47,-49.16c-3.7,-7.568 -5.121,-15.546 -4.262,-23.926c3.535,-7.196 7.648,-13.804 12.337,-19.83Z" style="fill:#925f4a;"/></g><g><path d="M1857.41,1070.23c36.433,-7.911 73.197,-12.697 110.289,-14.357c20.915,16.249 28.858,37.756 23.836,64.52c-4.889,11.712 -13.561,19.135 -26.009,22.266c-36.693,0.019 -73.334,-1.096 -109.915,-3.343c-17.979,-10.952 -24.911,-26.761 -20.792,-47.43c4.846,-10.666 12.376,-17.886 22.591,-21.656Z" style="fill:#a4684a;fill-opacity:0.98;"/></g><g><path d="M1552.33,1198.63c35.481,-4.325 49.347,10.837 41.604,45.485c-13.463,20.736 -28.181,40.401 -44.151,58.999c-30.419,10.708 -45.854,-0.059 -46.309,-32.305c14.361,-25.59 30.645,-49.649 48.856,-72.179Z" style="fill:#925f4a;"/></g><g><path d="M1199.29,1275.62c27.173,-8.921 55.557,-14.563 85.146,-16.931c18.809,-2.437 35.51,2.23 50.1,13.997c26.017,28.874 51.273,58.466 75.763,88.772c6.495,18.386 7.463,37.021 2.906,55.905c-20.483,31.526 -42.795,61.36 -66.928,89.505c-0.085,-3.074 -1.63,-5.151 -4.636,-6.227c-32.745,-9.137 -65.105,-19.242 -97.087,-30.313c-24.146,-13.761 -35.507,-34.659 -34.09,-62.693c4.316,-39.595 11.493,-78.491 21.532,-116.683c5.038,-10.087 12.467,-17.874 22.286,-23.365c-18.497,1.535 -36.827,4.211 -54.992,8.033Z" style="fill:#734b45;"/></g><g><path d="M1199.29,1275.62c18.165,-3.822 36.495,-6.498 54.992,-8.033c-9.819,5.491 -17.248,13.278 -22.286,23.365c-10.039,38.192 -17.216,77.088 -21.532,116.683c-1.417,28.034 9.944,48.932 34.09,62.693c31.982,11.071 64.342,21.176 97.087,30.313c3.006,1.076 4.551,3.153 4.636,6.227c-15.269,11.187 -32.257,14.802 -50.965,10.842c-42.295,-11.689 -84.015,-24.827 -125.159,-39.418c-17.9,-16.768 -26.313,-37.606 -25.24,-62.507c4.285,-36.839 10.73,-73.252 19.332,-109.237c7.306,-15.429 18.989,-25.741 35.045,-30.928Z" style="fill:#644141;"/></g><g><path d="M800.697,1413.63c0.406,2.28 1.747,3.216 4.027,2.81c-17.087,16.98 -33.248,35.139 -48.482,54.48c-2.774,8.838 -4.1,17.89 -3.978,27.157c12.183,27.971 24.764,55.704 37.743,83.202c7.598,10.77 16.831,19.705 27.697,26.804c-18.83,6.182 -38.097,10.203 -57.802,12.06c-9.296,-3.486 -17.818,-8.432 -25.566,-14.842c-18.077,-30.045 -33.647,-61.358 -46.71,-93.946c-1.531,-11.277 0.06,-22.14 4.774,-32.589c15.319,-19.145 32.151,-36.838 50.496,-53.076c17.103,-13.979 36.37,-18 57.801,-12.06Z" style="fill:#644141;"/></g><g><path d="M804.724,1416.44c19.409,6.272 39.159,11.57 59.255,15.893c11.94,4.337 22.008,11.36 30.201,21.068c7.619,37.23 8.416,74.701 2.394,112.421c-10.427,15.825 -24.387,26.539 -41.881,32.145c-13.039,1.42 -25.37,4.791 -36.989,10.116c-10.866,-7.099 -20.099,-16.034 -27.697,-26.804c-12.979,-27.498 -25.56,-55.231 -37.743,-83.202c-0.122,-9.267 1.204,-18.319 3.978,-27.157c15.234,-19.341 31.395,-37.5 48.482,-54.48Z" style="fill:#734b46;"/></g><g><path d="M1947.14,1336.36c12.792,-2.011 24.895,-0.051 36.311,5.874c19.395,12.527 37.719,26.31 54.972,41.341c9.102,31.281 -2.807,46.919 -35.723,46.918c-20.807,-14.514 -41.61,-29.026 -62.417,-43.541c-13.195,-19.179 -10.91,-36.044 6.857,-50.592Z" style="fill:#925f4a;"/></g><g><path d="M1048.16,1595.24c23.573,-9.806 40.01,-3.329 49.305,19.429c-3.414,27.081 -8.636,53.871 -15.658,80.371c-13.517,16.514 -29.465,19.355 -47.852,8.524c-4.503,-5.778 -7.43,-12.31 -8.781,-19.595c2.449,-23.016 5.997,-45.981 10.649,-68.899c2.305,-8.024 6.417,-14.636 12.337,-19.83Z" style="fill:#c88750;"/></g><g><path d="M1706.48,1509.71c-5.973,12.218 -11.35,24.933 -16.128,38.137c-9.937,42.589 -16.975,85.571 -21.111,128.95c5.173,15.653 13.975,28.78 26.41,39.376c27.372,14.629 54.181,29.838 80.42,45.625c-20.436,17.756 -43.325,21.248 -68.665,10.468c-28.989,-15.332 -57.24,-32.044 -84.751,-50.142c-9.382,-9.554 -15.499,-20.807 -18.356,-33.758c0.671,-32.362 4.979,-64.283 12.918,-95.753c1.184,-26.888 10.531,-50.301 28.043,-70.235c8.857,-5.235 18.037,-9.807 27.531,-13.72c11.268,0.637 22.498,0.986 33.689,1.052Z" style="fill:#644141;"/></g><g><path d="M1706.48,1509.71c35.217,-0.11 69.984,3.688 104.297,11.395c13.666,8.537 23.407,20.319 29.219,35.35c9.957,32.239 16.981,65.078 21.075,98.513c-0.546,6.255 -1.811,12.359 -3.791,18.308c-25.261,31.354 -52.328,60.861 -81.209,88.522c-26.239,-15.787 -53.048,-30.996 -80.42,-45.625c-12.435,-10.596 -21.237,-23.723 -26.41,-39.376c4.136,-43.379 11.174,-86.361 21.111,-128.95c4.778,-13.204 10.155,-25.919 16.128,-38.137Z" style="fill:#734b46;"/></g><g><path d="M1366.98,1623.08c17.7,-5.833 32.019,-1.331 42.96,13.506c9.565,19.885 18.447,40.051 26.645,60.493c2.878,28.232 -10.106,41.124 -38.954,38.677c-17.162,-16.204 -29.462,-35.761 -36.899,-58.666c-4.513,-12.128 -6.745,-24.658 -6.698,-37.598c3.819,-6.217 8.134,-11.69 12.946,-16.412Z" style="fill:#925f4a;"/></g><g><path d="M788.588,1761.38c24.712,-6.701 40.413,2.255 47.105,26.874c-3.728,25.501 -8.011,50.949 -12.849,76.344c-15.495,17.568 -32.788,19.474 -51.879,5.715c-5.219,-24.563 -4.923,-49.301 0.886,-74.213c3.507,-12.83 9.087,-24.404 16.737,-34.72Z" style="fill:#925f4a;"/></g><g><path d="M1963.63,1587.33c30.779,-5.984 46.519,6.496 47.223,37.432c-4.032,22.466 -9.494,44.598 -16.385,66.395c-16.809,18.754 -34.305,19.522 -52.488,2.297c-3.7,-7.568 -5.121,-15.546 -4.262,-23.926c3.798,-29.301 12.434,-56.702 25.912,-82.198Z" style="fill:#c88750;"/></g><g><path d="M1207,1813.8c-18.901,17.977 -38.01,36.076 -57.331,54.293c-13.95,16.947 -17.07,35.724 -9.361,56.328c11.447,24.176 23.886,47.82 37.321,70.934c8.821,7.671 18.584,12.985 29.288,15.941c-22.714,4.632 -45.603,8.124 -68.665,10.469c-9.431,-1.434 -17.751,-5.242 -24.957,-11.424c-22.472,-32.256 -36.373,-67.396 -41.7,-105.418c3.031,-10.816 8.345,-20.579 15.941,-29.288c21.309,-17.69 41.458,-36.56 60.445,-56.612c18.501,-15.61 38.172,-17.351 59.019,-5.223Z" style="fill:#644141;"/></g><g><path d="M1207,1813.8c26.772,18.188 52.113,38.359 76.02,60.514c4.512,12.127 6.744,24.658 6.697,37.598c-5.071,18.983 -11.143,37.697 -18.211,56.141c-9.714,26.909 -28.967,40.918 -57.753,42.026c-2.28,0.406 -4.556,0.811 -6.836,1.217c-10.704,-2.956 -20.467,-8.27 -29.288,-15.941c-13.435,-23.114 -25.874,-46.758 -37.321,-70.934c-7.709,-20.604 -4.589,-39.381 9.361,-56.328c19.321,-18.217 38.43,-36.316 57.331,-54.293Z" style="fill:#734b46;"/></g><g><path d="M1614.4,1903.44c37.145,-10.531 53.088,3.087 47.832,40.85c-19.365,16.028 -39.654,30.811 -60.867,44.344c-32.916,9.978 -48.554,-1.931 -46.918,-35.723c3.278,-4.7 6.554,-9.395 9.832,-14.095c17.568,-11.152 34.274,-22.944 50.121,-35.376Z" style="fill:#925f4a;"/></g></g><g transform="matrix(1.13102,0,0,1.13102,-360.469,167.862)"><text x="318.711px" y="2327.1px" style="font-family:'FontAwesome5Pro-Solid', 'Font Awesome 5 Pro';font-weight:900;font-size:2829.17px;fill:#12203f;"></text><path d="M3109.19,2297.81l-550.914,-550.914c-24.866,-24.866 -58.57,-38.68 -93.937,-38.68l-90.068,-0c152.507,-195.056 243.131,-440.4 243.131,-707.29c0,-634.905 -514.441,-1149.35 -1149.35,-1149.35c-634.906,-0 -1149.35,514.441 -1149.35,1149.35c-0,634.905 514.44,1149.35 1149.35,1149.35c266.89,0 512.234,-90.623 707.29,-243.131l-0,90.068c-0,35.367 13.814,69.071 38.68,93.937l550.913,550.914c51.939,51.944 135.931,51.944 187.319,-0l156.381,-156.377c51.939,-51.943 51.939,-135.935 0.551,-187.873Zm-22.243,22.041l-550.813,-550.813c-19,-18.999 -44.772,-29.508 -71.795,-29.508l-90.068,-0c-11.974,-0 -22.9,-6.829 -28.147,-17.592c-5.247,-10.763 -3.897,-23.576 3.478,-33.01c148.348,-189.735 236.486,-428.391 236.486,-688.002c0,-617.607 -500.425,-1118.03 -1118.03,-1118.03c-617.608,-0 -1118.03,500.425 -1118.03,1118.03c-0,617.607 500.424,1118.03 1118.03,1118.03c259.611,0 498.266,-88.138 688.002,-236.485c9.433,-7.376 22.247,-8.726 33.01,-3.479c10.763,5.247 17.592,16.173 17.592,28.147l-0,90.068c-0,27.023 10.509,52.795 29.508,71.795c0,-0 550.914,550.914 550.915,550.915c39.626,39.63 103.707,39.748 142.914,0.118c0.039,-0.04 0.079,-0.08 0.119,-0.12c-0,0 156.381,-156.376 156.38,-156.375c39.725,-39.729 39.742,-103.967 0.451,-143.691Zm-1618.89,-580.321c408.539,-0 738.604,-330.64 738.604,-738.604c-0,-408.539 -330.64,-738.604 -738.604,-738.604c-408.539,0 -738.604,330.64 -738.604,738.604c0,408.539 330.64,738.604 738.604,738.604Zm-0,-31.314c-390.668,-0 -707.29,-316.071 -707.29,-707.29c-0,-390.668 316.071,-707.29 707.29,-707.29c390.668,0 707.29,316.071 707.29,707.29c-0,390.668 -316.071,707.29 -707.29,707.29Z" style="fill:#eae9ed;"/></g></svg>